<?xml version="1.0" encoding="UTF-8" standalone="no"?>
<svg
   width="32"
   zoomAndPan="magnify"
   viewBox="0 0 24 23.999998"
   height="31.999998"
   preserveAspectRatio="xMidYMid"
   version="1.0"
   id="svg10"
   sodipodi:docname="ptah_sh_logo_image.svg"
   xmlns:inkscape="http://www.inkscape.org/namespaces/inkscape"
   xmlns:sodipodi="http://sodipodi.sourceforge.net/DTD/sodipodi-0.dtd"
   xmlns="http://www.w3.org/2000/svg"
   xmlns:svg="http://www.w3.org/2000/svg">
  <sodipodi:namedview
     id="namedview1"
     pagecolor="#ffffff"
     bordercolor="#000000"
     borderopacity="0.25"
     inkscape:showpageshadow="2"
     inkscape:pageopacity="0.0"
     inkscape:pagecheckerboard="0"
     inkscape:deskcolor="#d1d1d1" />
  <defs
     id="defs2">
    <clipPath
       id="fe1bb9dc58">
      <path
         d="m 0,5.28125 h 112 v 73.5 H 0 Z m 0,0"
         clip-rule="nonzero"
         id="path1" />
    </clipPath>
    <clipPath
       id="8297236931">
      <path
         d="m 63.59375,5.28125 c 1.226562,0 2.464844,0 3.6875,0 9.777344,1.226562 15.886719,5.3125 18.667969,12 16.296871,-0.894531 28.144531,11.75 20.925781,24.160156 2.40234,2.609375 4.40234,5.523438 5.12891,9.4375 0,1.121094 0,2.242188 0,3.363282 -2.15625,9.964843 -11.4336,16.695312 -26.667972,14.882812 -3.917969,5.117188 -10.890626,10.238281 -21.742188,9.601562 -5.609375,-0.335937 -9.507812,-2.28125 -12.925781,-4.644531 -3.597657,1.964844 -7.496094,3.507813 -13.125,3.523438 C 24.515625,77.632812 15.800781,70.066406 15.589844,59.683594 7.214844,57.253906 1.542969,52.722656 0,44.964844 0,43.84375 0,42.71875 0,41.601562 1.703125,33.917969 7.066406,29.085938 16,27.039062 15.460938,14.074219 33.324219,5.96875 48,11.683594 51.492188,8.859375 56.4375,5.777344 63.59375,5.28125 Z m 0,0"
         clip-rule="nonzero"
         id="path2" />
    </clipPath>
  </defs>
  <g
     id="g1"
     style="stroke-width:0.99975;stroke-dasharray:none"
     transform="matrix(0.21433057,0,0,0.21433057,-2.157196e-7,4.1234438)">
    <g
       clip-path="url(#fe1bb9dc58)"
       id="g4"
       transform="translate(0,-5.2812501)"
       style="stroke-width:0.99975;stroke-dasharray:none">
      <g
         clip-path="url(#8297236931)"
         id="g3"
         style="stroke-width:0.99975;stroke-dasharray:none">
        <path
           fill="#2e2a68"
           d="m 0,5.28125 h 111.97656 v 73.5 H 0 Z m 0,0"
           fill-opacity="1"
           fill-rule="nonzero"
           id="path3"
           style="stroke-width:0.99975;stroke-dasharray:none" />
      </g>
    </g>
    <g
       fill="#ffffff"
       fill-opacity="1"
       id="g7"
       transform="translate(0,-5.2812501)"
       style="stroke-width:0.99975;stroke-dasharray:none">
      <g
         transform="translate(40.271753,56.963794)"
         id="g6"
         style="stroke-width:0.99975;stroke-dasharray:none">
        <g
           id="g5"
           style="stroke-width:0.99975;stroke-dasharray:none">
          <path
             d="M 5.90625,-8.609375 H 0.640625 V -11.25 H 6.375 l 0.921875,-5.34375 h -5.21875 v -2.640625 H 7.78125 l 1.515625,-8.609375 h 2.90625 L 7.296875,0 H 4.390625 Z M 16.640625,-27.84375 h 2.90625 l -1.515625,8.609375 h 5.265625 v 2.640625 h -5.75 l -0.90625,5.34375 h 5.21875 v 2.640625 H 16.15625 L 14.640625,0 h -2.90625 z m 0,0"
             id="path4"
             style="stroke-width:0.99975;stroke-dasharray:none" />
        </g>
      </g>
    </g>
    <g
       fill="#ffffff"
       fill-opacity="1"
       id="g10"
       transform="translate(0,-5.2812501)"
       style="stroke-width:0.99975;stroke-dasharray:none">
      <g
         transform="translate(64.198222,56.963794)"
         id="g9"
         style="stroke-width:0.99975;stroke-dasharray:none">
        <g
           id="g8"
           style="stroke-width:0.99975;stroke-dasharray:none">
          <path
             d="M 11.328125,-9.296875 10.21875,-19.75 v -8.09375 h 3.5 V -19.75 l -1.109375,10.453125 z m 0.640625,9.65625 c -1.09375,0 -1.859375,-0.226563 -2.296875,-0.671875 -0.4375,-0.457031 -0.65625,-1.03125 -0.65625,-1.71875 V -2.75 c 0,-0.695312 0.21875,-1.269531 0.65625,-1.71875 0.4375,-0.445312 1.203125,-0.671875 2.296875,-0.671875 1.09375,0 1.859375,0.226563 2.296875,0.671875 0.4375,0.449219 0.65625,1.023438 0.65625,1.71875 v 0.71875 c 0,0.6875 -0.21875,1.261719 -0.65625,1.71875 -0.4375,0.445312 -1.203125,0.671875 -2.296875,0.671875 z m 0,0"
             id="path7"
             style="stroke-width:0.99975;stroke-dasharray:none" />
        </g>
      </g>
    </g>
  </g>
</svg>
