<?xml version="1.0" encoding="UTF-8" standalone="no"?>
<svg
   width="150"
   zoomAndPan="magnify"
   viewBox="0 0 112.5 84.749997"
   height="113"
   preserveAspectRatio="xMidYMid meet"
   version="1.0"
   id="svg10"
   sodipodi:docname="logo-grey.svg"
   inkscape:version="1.3.2 (091e20e, 2023-11-25)"
   xmlns:inkscape="http://www.inkscape.org/namespaces/inkscape"
   xmlns:sodipodi="http://sodipodi.sourceforge.net/DTD/sodipodi-0.dtd"
   xmlns="http://www.w3.org/2000/svg"
   xmlns:svg="http://www.w3.org/2000/svg">
  <sodipodi:namedview
     id="namedview10"
     pagecolor="#ffffff"
     bordercolor="#000000"
     borderopacity="0.25"
     inkscape:showpageshadow="2"
     inkscape:pageopacity="0.0"
     inkscape:pagecheckerboard="0"
     inkscape:deskcolor="#d1d1d1"
     inkscape:zoom="1.84"
     inkscape:cx="74.728261"
     inkscape:cy="56.25"
     inkscape:window-width="1728"
     inkscape:window-height="988"
     inkscape:window-x="0"
     inkscape:window-y="38"
     inkscape:window-maximized="1"
     inkscape:current-layer="svg10" />
  <defs
     id="defs2">
    <g
       id="g1" />
    <clipPath
       id="a3d20673d7">
      <path
         d="M 0 5.28125 L 112 5.28125 L 112 78.78125 L 0 78.78125 Z M 0 5.28125 "
         clip-rule="nonzero"
         id="path1" />
    </clipPath>
    <clipPath
       id="9fbc65fec2">
      <path
         d="M 63.59375 5.28125 C 64.820312 5.28125 66.058594 5.28125 67.28125 5.28125 C 77.058594 6.507812 83.167969 10.59375 85.949219 17.28125 C 102.246094 16.386719 114.09375 29.03125 106.875 41.441406 C 109.277344 44.050781 111.277344 46.964844 112.003906 50.878906 C 112.003906 52 112.003906 53.121094 112.003906 54.242188 C 109.847656 64.207031 100.570312 70.9375 85.335938 69.125 C 81.417969 74.242188 74.445312 79.363281 63.59375 78.726562 C 57.984375 78.390625 54.085938 76.445312 50.667969 74.082031 C 47.070312 76.046875 43.171875 77.589844 37.542969 77.605469 C 24.515625 77.632812 15.800781 70.066406 15.589844 59.683594 C 7.214844 57.253906 1.542969 52.722656 0 44.964844 C 0 43.84375 0 42.71875 0 41.601562 C 1.703125 33.917969 7.066406 29.085938 16 27.039062 C 15.460938 14.074219 33.324219 5.96875 48 11.683594 C 51.492188 8.859375 56.4375 5.777344 63.59375 5.28125 Z M 63.59375 5.28125 "
         clip-rule="nonzero"
         id="path2" />
    </clipPath>
  </defs>
  <g
     clip-path="url(#a3d20673d7)"
     id="g4"
     style="fill:#e6e6e6">
    <g
       clip-path="url(#9fbc65fec2)"
       id="g3"
       style="fill:#e6e6e6">
      <path
         fill="#2e2a68"
         d="M 0 5.28125 L 111.976562 5.28125 L 111.976562 78.78125 L 0 78.78125 Z M 0 5.28125 "
         fill-opacity="1"
         fill-rule="nonzero"
         id="path3"
         style="fill:#e6e6e6" />
    </g>
  </g>
  <g
     fill="#ffffff"
     fill-opacity="1"
     id="g7">
    <g
       transform="translate(40.271753, 56.963794)"
       id="g6">
      <g
         id="g5">
        <path
           d="M 5.90625 -8.609375 L 0.640625 -8.609375 L 0.640625 -11.25 L 6.375 -11.25 L 7.296875 -16.59375 L 2.078125 -16.59375 L 2.078125 -19.234375 L 7.78125 -19.234375 L 9.296875 -27.84375 L 12.203125 -27.84375 L 7.296875 0 L 4.390625 0 Z M 16.640625 -27.84375 L 19.546875 -27.84375 L 18.03125 -19.234375 L 23.296875 -19.234375 L 23.296875 -16.59375 L 17.546875 -16.59375 L 16.640625 -11.25 L 21.859375 -11.25 L 21.859375 -8.609375 L 16.15625 -8.609375 L 14.640625 0 L 11.734375 0 Z M 16.640625 -27.84375 "
           id="path4" />
      </g>
    </g>
  </g>
  <g
     fill="#ffffff"
     fill-opacity="1"
     id="g10">
    <g
       transform="translate(64.198222, 56.963794)"
       id="g9">
      <g
         id="g8">
        <path
           d="M 11.328125 -9.296875 L 10.21875 -19.75 L 10.21875 -27.84375 L 13.71875 -27.84375 L 13.71875 -19.75 L 12.609375 -9.296875 Z M 11.96875 0.359375 C 10.875 0.359375 10.109375 0.132812 9.671875 -0.3125 C 9.234375 -0.769531 9.015625 -1.34375 9.015625 -2.03125 L 9.015625 -2.75 C 9.015625 -3.445312 9.234375 -4.019531 9.671875 -4.46875 C 10.109375 -4.914062 10.875 -5.140625 11.96875 -5.140625 C 13.0625 -5.140625 13.828125 -4.914062 14.265625 -4.46875 C 14.703125 -4.019531 14.921875 -3.445312 14.921875 -2.75 L 14.921875 -2.03125 C 14.921875 -1.34375 14.703125 -0.769531 14.265625 -0.3125 C 13.828125 0.132812 13.0625 0.359375 11.96875 0.359375 Z M 11.96875 0.359375 "
           id="path7" />
      </g>
    </g>
  </g>
</svg>
