<svg
  width="83"
  height="82"
  viewBox="0 0 83 82"
  fill="none"
  xmlns="http://www.w3.org/2000/svg"
>
    <path
    d="M68.1998 72.1C61.0998 78.3 51.7998 82 41.4998 82C31.1998 82 21.9998 78.3 14.7998 72.1L41.4998 45.4L56.6998 60.6L68.1998 72.1Z"
    fill="#7F95FF"
  />
    <path
    d="M82.1998 41.4C82.1998 51.6 78.4998 60.9 72.2998 68.1L60.7998 56.6C64.1998 52.6 66.0998 47 66.0998 41.4C66.0998 35.5 64.1998 30.2 60.7998 26.2L72.2998 14.7C78.0998 21.8 82.1998 31.1 82.1998 41.4Z"
    fill="#FF94A6"
  />
    <path
    d="M68.1998 10.9L56.6998 22.4C52.6998 19 47.0998 17.1 41.4998 17.1C35.5998 17.1 30.2998 19 26.2998 22.4L14.7998 10.9C21.8998 4.7 31.1998 1 41.4998 1C51.7998 0.700002 61.0998 4.4 68.1998 10.9Z"
    fill="#FF782A"
  />
    <path
    d="M16.9999 41.4C16.9999 47.3 18.8999 52.6 22.2999 56.6L10.7999 68C4.5999 60.9 0.899902 51.6 0.899902 41.3C0.899902 31.1 4.5999 21.8 10.7999 14.6L22.2999 26.1C18.8999 30.2 16.9999 35.8 16.9999 41.4Z"
    fill="#FFA77F"
  />
</svg>
